<svg width="20" height="23" viewBox="0 0 20 23" fill="none" xmlns="http://www.w3.org/2000/svg">
<g clip-path="url(#clip0_7_2)">
<path d="M1.23186e-09 6.42963V4.86723C0.02976 4.30179 0.25296 3.82563 0.6696 3.43875C1.08624 3.05187 1.57728 2.85842 2.14272 2.85842H4.28544V2.14418C4.28544 1.54898 4.49376 1.04306 4.9104 0.626425C5.32704 0.209785 5.83296 0.00146484 6.42816 0.00146484H13.5706C14.1658 0.00146484 14.6717 0.209785 15.0883 0.626425C15.505 1.04306 15.7133 1.54898 15.7133 2.14418V2.85842H17.856C18.4214 2.85842 18.9125 3.05187 19.3291 3.43875C19.7458 3.82563 19.969 4.30179 19.9987 4.86723V6.42963C19.9987 6.81651 19.8574 7.15131 19.5746 7.43404C19.2919 7.71676 18.9571 7.85812 18.5702 7.85811V20.0002C18.5702 20.8037 18.295 21.4807 17.7444 22.0313C17.1939 22.5819 16.5168 22.8572 15.7133 22.8571H4.28544C3.48192 22.8571 2.80488 22.5819 2.25431 22.0313C1.70374 21.4808 1.42846 20.8037 1.42848 20.0002V7.85811C1.0416 7.85811 0.706796 7.71675 0.424069 7.43404C0.141341 7.15132 -1.52369e-05 6.81652 1.23186e-09 6.42963ZM1.42848 6.42963H18.5702V5.00115C18.5702 4.79283 18.5033 4.6217 18.3693 4.48777C18.2354 4.35385 18.0643 4.28688 17.856 4.28688H2.1427C1.93438 4.28688 1.76325 4.35385 1.62933 4.48777C1.4954 4.6217 1.42843 4.79283 1.42843 5.00115V6.42963H1.42848ZM2.85696 20.0002C2.85696 20.3871 2.99832 20.7219 3.28103 21.0046C3.56374 21.2873 3.89854 21.4287 4.28544 21.4287H15.7133C16.1002 21.4287 16.435 21.2873 16.7177 21.0046C17.0004 20.7219 17.1418 20.3871 17.1418 20.0002V7.85811H2.85696V20.0002ZM4.28544 19.2859V10.0008C4.28544 9.79251 4.3524 9.62138 4.48633 9.48745C4.62026 9.35353 4.79138 9.28656 4.9997 9.28656H6.42818C6.6365 9.28656 6.80763 9.35353 6.94155 9.48745C7.07548 9.62138 7.14244 9.79251 7.14244 10.0008V19.2859C7.14244 19.4943 7.07548 19.6654 6.94155 19.7993C6.80763 19.9332 6.6365 20.0002 6.42818 20.0002H4.9997C4.79138 20.0002 4.62026 19.9332 4.48633 19.7993C4.3524 19.6654 4.28544 19.4943 4.28544 19.2859ZM4.99968 19.2859H6.42816V10.0008H4.99968V19.2859ZM5.71392 2.85842H14.2848V2.14418C14.2848 1.93586 14.2178 1.76474 14.0839 1.63081C13.95 1.49689 13.7789 1.42992 13.5705 1.42992H6.42814C6.21982 1.42992 6.04869 1.49689 5.91477 1.63081C5.78084 1.76474 5.71387 1.93586 5.71387 2.14418V2.85842H5.71392ZM8.57088 19.2859V10.0008C8.57088 9.79251 8.63784 9.62138 8.77177 9.48745C8.9057 9.35353 9.07682 9.28656 9.28514 9.28656H10.7136C10.9219 9.28656 11.0931 9.35353 11.227 9.48745C11.3609 9.62138 11.4279 9.79251 11.4279 10.0008V19.2859C11.4279 19.4943 11.3609 19.6654 11.227 19.7993C11.0931 19.9332 10.9219 20.0002 10.7136 20.0002H9.28514C9.07682 20.0002 8.9057 19.9332 8.77177 19.7993C8.63784 19.6654 8.57088 19.4943 8.57088 19.2859ZM9.28512 19.2859H10.7136V10.0008H9.28512V19.2859ZM12.8563 19.2859V10.0008C12.8563 9.79251 12.9233 9.62138 13.0572 9.48745C13.1911 9.35353 13.3623 9.28656 13.5706 9.28656H14.9991C15.2074 9.28656 15.3785 9.35353 15.5124 9.48745C15.6464 9.62138 15.7133 9.79251 15.7133 10.0008V19.2859C15.7133 19.4943 15.6464 19.6654 15.5124 19.7993C15.3785 19.9332 15.2074 20.0002 14.9991 20.0002H13.5706C13.3623 20.0002 13.1911 19.9332 13.0572 19.7993C12.9233 19.6654 12.8563 19.4943 12.8563 19.2859ZM13.5706 19.2859H14.999V10.0008H13.5706V19.2859Z" fill="white"/>
</g>
<defs>
<clipPath id="clip0_7_2">
<rect width="20" height="22.8571" fill="white"/>
</clipPath>
</defs>
</svg>
